<svg version="1.1" id="Layer_1" xmlns="http://www.w3.org/2000/svg" xmlns:xlink="http://www.w3.org/1999/xlink" x="0px" y="0px"
	 width="100%" viewBox="0 0 902 906" enable-background="new 0 0 902 906" xml:space="preserve">




































<path fill="#FCEC52" opacity="1.000000" stroke="none" 
	d="
M345.033539,836.963135 
	C334.731354,834.466370 324.140442,832.799744 314.175568,829.333313 
	C263.228790,811.611206 218.639771,783.404968 179.579193,746.313965 
	C146.180984,714.599915 119.202553,678.032349 97.299583,637.620300 
	C95.632942,634.545349 94.316643,631.223877 92.291405,628.410034 
	C84.790710,617.988586 85.095802,606.238098 86.283134,594.395325 
	C89.624367,561.068787 98.927750,529.456055 114.290642,499.688843 
	C131.727478,465.903168 155.614655,437.311188 184.848114,413.136963 
	C229.600555,376.129456 281.399536,353.329895 336.881042,338.009644 
	C340.690918,336.957611 344.514984,335.957245 349.039246,335.770599 
	C346.670471,338.997192 344.314056,342.232880 341.931122,345.449005 
	C303.823700,396.880066 276.154205,453.329193 260.486145,515.488342 
	C251.557144,550.912048 247.973450,586.973511 250.260132,623.395203 
	C254.060410,683.925171 273.809174,739.211243 308.031921,789.117188 
	C319.301239,805.550842 332.519775,820.647766 344.925140,836.675537 
	C345.003265,836.995056 345.033539,836.963074 345.033539,836.963135 
z"/>
<path fill="#FCEC52" opacity="1.000000" stroke="none" 
	d="
M832.080078,556.385986 
	C827.711853,569.466492 823.749390,582.699707 818.895325,595.597351 
	C806.863892,627.565796 790.000061,657.058044 771.373413,685.558105 
	C769.599670,688.271973 766.153198,690.133423 763.142822,691.760681 
	C736.651978,706.080078 708.295166,714.863586 678.557007,718.926331 
	C610.178772,728.268127 547.594421,711.299622 489.069305,676.432312 
	C455.064514,656.173340 425.148987,630.827576 397.356445,602.833130 
	C396.693665,602.165466 396.118622,601.410828 394.854004,599.944763 
	C403.323761,600.814148 410.835724,601.562927 418.342560,602.359802 
	C445.895752,605.284485 473.460632,605.364746 501.094299,603.371399 
	C529.043518,601.355347 556.597656,597.036011 583.699158,590.037537 
	C637.895630,576.042175 687.033936,551.961121 729.237000,514.868774 
	C757.484802,490.041687 780.776978,461.005798 798.962585,428.005951 
	C803.624084,419.547150 807.921875,410.887909 812.946411,402.324280 
	C814.283752,404.498962 815.140442,406.645416 815.827332,408.844940 
	C827.129578,445.035309 832.674988,482.133240 832.937988,520.005798 
	C833.022156,532.130005 832.386414,544.259094 832.080078,556.385986 
z"/>
<path fill="#FCEC52" opacity="1.000000" stroke="none" 
	d="
M257.990631,187.393600 
	C274.323975,189.077164 290.866028,189.643829 306.952362,192.649475 
	C359.442169,202.456955 405.680573,226.250488 447.282776,259.053284 
	C465.019318,273.038361 481.302826,288.864349 498.296295,303.797302 
	C499.659210,304.994965 501.409241,305.752045 502.979401,306.713867 
	C502.552948,307.400513 502.126526,308.087158 501.700104,308.773804 
	C499.405579,308.518646 497.108978,308.281097 494.816895,308.005585 
	C467.014618,304.663757 439.170776,303.443909 411.145264,304.709198 
	C382.127441,306.019318 353.446869,309.525421 325.194183,316.050995 
	C277.174896,327.142120 232.361176,345.706360 192.248077,374.788025 
	C152.372772,403.697235 120.916229,440.014160 97.004578,482.990479 
	C84.743340,505.027557 74.841141,528.082275 66.470062,551.769531 
	C65.761124,548.283875 65.077850,544.993408 65.084061,541.704346 
	C65.127945,518.478882 64.475883,495.284424 67.753288,472.106171 
	C71.128700,448.234772 76.139000,424.803314 83.651054,401.971619 
	C91.708824,377.481232 102.284004,354.054535 115.084167,331.598053 
	C131.626236,302.576843 151.925659,276.464264 175.099564,252.552795 
	C182.478333,244.939148 190.264740,237.590942 198.603546,231.065536 
	C213.862106,219.125229 229.655594,207.867279 245.260330,196.371384 
	C249.440018,193.292236 253.743820,190.381607 257.990631,187.393600 
z"/>
<path fill="#FCEC52" opacity="1.000000" stroke="none" 
	d="
M800.446899,365.359558 
	C796.374207,376.426361 793.010498,387.818359 788.108643,398.504852 
	C764.265625,450.485413 726.460022,490.020355 678.425720,520.345886 
	C639.038330,545.212341 596.221069,561.751465 551.332947,573.378845 
	C550.409729,573.617981 549.459717,573.753357 547.388916,574.159241 
	C551.719604,568.345337 555.507751,563.425232 559.122803,558.381165 
	C596.485413,506.249146 624.148987,449.526855 638.217712,386.775665 
	C642.635376,367.071136 645.210510,346.804169 646.826172,326.650116 
	C650.873291,276.162689 641.862183,227.589966 623.113525,180.503693 
	C631.992676,184.973282 640.997803,189.091309 649.037598,194.614548 
	C665.282593,205.774750 681.301025,217.314697 696.866760,229.401321 
	C717.304077,245.270660 734.571899,264.446442 750.652649,284.586639 
	C769.379028,308.040405 784.816040,333.617035 797.470215,360.855896 
	C798.219971,362.469757 799.443726,363.863403 800.446899,365.359558 
z"/>
<path fill="#FCEC52" opacity="1.000000" stroke="none" 
	d="
M589.004211,163.975891 
	C599.949036,184.141388 607.385681,205.638443 612.659424,227.871918 
	C619.692627,257.523041 622.051941,287.688263 620.707031,318.071777 
	C619.254089,350.897614 613.917358,383.182220 605.578491,414.968231 
	C604.485840,419.132904 603.565674,423.342834 602.214294,429.003662 
	C600.892944,426.505066 600.001770,425.113342 599.384094,423.609344 
	C578.706665,373.262146 550.500793,327.606628 514.491028,286.754883 
	C482.208252,250.131287 444.975983,219.854538 401.128113,198.087448 
	C369.888611,182.579468 336.961426,172.363998 302.388397,167.352112 
	C323.318512,157.949722 345.041016,151.536819 367.300476,146.702591 
	C390.820831,141.594559 414.576019,138.115753 438.609711,138.173721 
	C457.635895,138.219635 476.740112,139.201630 495.656250,141.211594 
	C511.214569,142.864777 526.728271,145.908997 541.930786,149.673141 
	C557.827759,153.609253 573.329651,159.141403 589.004211,163.975891 
z"/>
<path fill="#F3B450" opacity="1.000000" stroke="none" 
	d="
M588.965759,163.623383 
	C573.329651,159.141403 557.827759,153.609253 541.930786,149.673141 
	C526.728271,145.908997 511.214569,142.864777 495.656250,141.211594 
	C476.740112,139.201630 457.635895,138.219635 438.609711,138.173721 
	C414.576019,138.115753 390.820831,141.594559 367.300476,146.702591 
	C345.041016,151.536819 323.318512,157.949722 302.028168,167.162048 
	C280.536072,166.474945 259.362396,164.252350 238.340134,165.242981 
	C216.355225,166.278946 194.515472,170.400940 172.614151,173.188797 
	C171.357254,173.348785 170.117355,173.642456 168.184448,172.914169 
	C173.379639,167.626602 178.353409,162.097870 183.806366,157.091034 
	C216.424530,127.141457 253.623199,104.502739 294.607452,87.899185 
	C327.269043,74.667320 361.137878,66.338570 396.049377,61.799484 
	C419.873505,58.701939 443.759857,57.679893 467.738159,58.160847 
	C474.223145,58.290913 480.714569,58.612030 487.175049,59.169525 
	C489.402252,59.361717 491.739960,60.197460 493.695648,61.317894 
	C517.066895,74.707314 536.977844,92.256836 554.579224,112.508713 
	C568.072815,128.034225 579.456665,145.011215 588.965759,163.623383 
z"/>
<path fill="#F3B450" opacity="1.000000" stroke="none" 
	d="
M800.693787,365.097595 
	C799.443726,363.863403 798.219971,362.469757 797.470215,360.855896 
	C784.816040,333.617035 769.379028,308.040405 750.652649,284.586639 
	C734.571899,264.446442 717.304077,245.270660 696.866760,229.401321 
	C681.301025,217.314697 665.282593,205.774750 649.037598,194.614548 
	C640.997803,189.091309 631.992676,184.973282 623.062134,180.123230 
	C615.467712,165.994629 608.721619,151.684311 600.892944,137.992966 
	C588.137573,115.685280 572.840393,95.126740 555.656860,75.993858 
	C554.461426,74.662842 553.444214,73.171799 551.378967,70.512306 
	C557.599182,72.008179 562.505066,72.996681 567.300537,74.370796 
	C616.365845,88.430199 659.840576,112.856987 698.961914,145.386642 
	C747.297424,185.577942 783.275269,235.256714 810.593872,291.441467 
	C812.786194,295.950134 812.358276,302.328552 811.549622,307.592560 
	C808.751648,325.805328 805.255310,343.911041 801.987427,362.050751 
	C801.814453,363.010742 801.297485,363.908783 800.693787,365.097595 
z"/>
<path fill="#F3B450" opacity="1.000000" stroke="none" 
	d="
M257.538422,187.288971 
	C253.743820,190.381607 249.440018,193.292236 245.260330,196.371384 
	C229.655594,207.867279 213.862106,219.125229 198.603546,231.065536 
	C190.264740,237.590942 182.478333,244.939148 175.099564,252.552795 
	C151.925659,276.464264 131.626236,302.576843 115.084167,331.598053 
	C102.284004,354.054535 91.708824,377.481232 83.651054,401.971619 
	C76.139000,424.803314 71.128700,448.234772 67.753288,472.106171 
	C64.475883,495.284424 65.127945,518.478882 65.084061,541.704346 
	C65.077850,544.993408 65.761124,548.283875 66.231415,552.063354 
	C66.132675,553.919067 65.927780,555.285095 65.722893,556.651184 
	C65.327682,556.698425 64.932480,556.745728 64.537277,556.792969 
	C63.434254,553.421631 62.193592,550.088318 61.249454,546.673096 
	C51.537392,511.541718 48.473278,475.621796 50.416058,439.417755 
	C54.402416,365.131195 78.671394,297.457733 118.199005,234.748123 
	C125.148415,223.723038 133.804855,216.344788 145.377228,211.188705 
	C171.706192,199.457855 199.005432,191.483398 227.751862,188.876602 
	C237.500961,187.992508 247.306473,187.730560 257.538422,187.288971 
z"/>
<path fill="#F3B652" opacity="1.000000" stroke="none" 
	d="
M832.289429,556.112244 
	C832.386414,544.259094 833.022156,532.130005 832.937988,520.005798 
	C832.674988,482.133240 827.129578,445.035309 815.827332,408.844940 
	C815.140442,406.645416 814.283752,404.498962 813.209351,402.097290 
	C817.961670,389.018188 823.036743,376.179749 828.042786,363.314453 
	C829.417664,359.780945 830.585999,356.167084 832.482300,352.587616 
	C844.009338,385.537170 847.798706,419.663177 847.472046,454.203979 
	C847.145996,488.681793 842.410767,522.685608 832.289429,556.112244 
z"/>
<path fill="#FCEC52" opacity="1.000000" stroke="none" 
	d="
M344.986572,837.009338 
	C345.103271,837.072815 345.236664,837.121948 345.370056,837.171082 
	C345.255951,837.215332 345.141815,837.259583 345.030640,837.133484 
	C345.033539,836.963074 345.003265,836.995056 344.986572,837.009338 
z"/>
















</svg>